<svg xmlns="http://www.w3.org/2000/svg" viewBox="0 0 2052.78 2832.83"><defs><style>.cls-1{fill:#c8f31d;}</style></defs><g id="Layer_2" data-name="Layer 2"><g id="Layer_1-2" data-name="Layer 1"><path class="cls-1" d="M397,1803.46l793.87-793.87a23.73,23.73,0,0,0,0-33.55L1029.37,814.58a23.7,23.7,0,0,0-33.54,0L185.19,1625.22,7,1803.46A23.7,23.7,0,0,0,7,1837l178.24,178.24,810.64,810.64a23.7,23.7,0,0,0,33.54,0l161.47-161.46a23.73,23.73,0,0,0,0-33.55L397,1837A23.72,23.72,0,0,1,397,1803.46Z"/><path class="cls-1" d="M1655.8,1029.37,861.94,1823.24a23.71,23.71,0,0,0,0,33.55l161.46,161.46a23.71,23.71,0,0,0,33.55,0l810.64-810.64,178.24-178.24a23.72,23.72,0,0,0,0-33.54L1867.59,817.59,1057,7a23.71,23.71,0,0,0-33.55,0L861.94,168.41a23.71,23.71,0,0,0,0,33.55L1655.8,995.83A23.7,23.7,0,0,1,1655.8,1029.37Z"/><rect class="cls-1" x="272.81" y="373.26" width="275.79" height="854.95" rx="6.02" transform="translate(686.49 -55.88) rotate(45)"/><rect class="cls-1" x="1504.18" y="1604.62" width="275.79" height="854.95" rx="6.02" transform="translate(1917.86 -565.93) rotate(45)"/></g></g></svg>