<svg xmlns="http://www.w3.org/2000/svg" viewBox="0 0 2833.34 719.02" fill="#3d3d3d">
  <g id="Layer_2" data-name="Layer 2">
    <g id="Layer_1-2" data-name="Layer 1">
      <path d="M1084.65,183.17v353.2a5,5,0,0,1-5.05,5h-62.77a5,5,0,0,1-5.05-5V391.88a5,5,0,0,0-5-5.05H861.21a5,5,0,0,0-5.05,5.05V536.37a5,5,0,0,1-5,5H788.34a5,5,0,0,1-5.05-5V183.17a5,5,0,0,1,5.05-5h62.77a5,5,0,0,1,5,5V322.45a5,5,0,0,0,5.05,5.05h145.52a5,5,0,0,0,5-5.05V183.17a5,5,0,0,1,5.05-5h62.77A5,5,0,0,1,1084.65,183.17Z" />
      <path d="M1618.39,200.5q43.45,22.4,67.14,63.76t23.68,96q0,54.65-23.68,95.51T1618.39,519q-43.47,22.4-100.71,22.38h-122a5,5,0,0,1-5-5V183.17a5,5,0,0,1,5-5h122Q1574.92,178.12,1618.39,200.5Zm-14.83,247.75q31.23-31.23,31.23-88t-31.23-88.74q-31.23-32-88.48-32H1468.6a5,5,0,0,0-5,5.05V474.43a5,5,0,0,0,5,5.05h46.48Q1572.32,479.48,1603.56,448.25Z" />
      <path d="M2070.94,242v81a5,5,0,0,0,5,5H2188.2a5,5,0,0,1,5.05,5.05v47.68a5,5,0,0,1-5.05,5H2076a5,5,0,0,0-5,5V477a5,5,0,0,0,5,5.05h127.83a5,5,0,0,1,5,5.05v49.24a5,5,0,0,1-5,5h-200.7a5,5,0,0,1-5-5V182.65a5,5,0,0,1,5-5.05h200.7a5,5,0,0,1,5,5.05v49.24a5,5,0,0,1-5,5.05H2076A5,5,0,0,0,2070.94,242Z" />
      <path d="M2833,184.91l-129.54,353.2a5,5,0,0,1-4.74,3.3h-81.43a5,5,0,0,1-4.74-3.3L2483,184.91a5.05,5.05,0,0,1,4.74-6.79H2555a5.06,5.06,0,0,1,4.77,3.4l94,271.64a5,5,0,0,0,9.54,0l93.48-271.63a5.05,5.05,0,0,1,4.78-3.41h66.72A5.06,5.06,0,0,1,2833,184.91Z" />
      <path fill="#b5e200" d="M100.76,457.75l201.49-201.5a6,6,0,0,0,0-8.51l-41-41a6,6,0,0,0-8.51,0L47,412.51,1.76,457.75a6,6,0,0,0,0,8.51L47,511.5,252.76,717.25a6,6,0,0,0,8.51,0l41-41a6,6,0,0,0,0-8.51L100.76,466.26A6,6,0,0,1,100.76,457.75Z" />
      <path fill="#b5e200" d="M420.27,261.27l-201.5,201.5a6,6,0,0,0,0,8.51l41,41a6,6,0,0,0,8.51,0L474,306.51l45.24-45.24a6,6,0,0,0,0-8.51L474,207.52,268.27,1.76a6,6,0,0,0-8.51,0l-41,41a6,6,0,0,0,0,8.51l201.5,201.5A6,6,0,0,1,420.27,261.27Z" />
      <rect fill="#b5e200" x="69.24" y="94.74" width="70" height="217" rx="6.02" transform="translate(174.24 -14.18) rotate(45)" />
      <rect fill="#b5e200" x="381.78" y="407.28" width="70" height="217" rx="6.02" transform="translate(486.78 -143.64) rotate(45)" />
    </g>
  </g>
</svg>